<svg xmlns="http://www.w3.org/2000/svg" viewBox="372 83 510 769" role="img" aria-labelledby="title desc">
  <title id="title">dmjedi icon</title>
  <desc id="desc">dmjedi monochrome vector icon.</desc>
  <path fill="currentColor" fill-rule="evenodd" d="M 622 286 C 632.00 281.00 635.67 287.00 644 294 C 652.33 301.00 662.67 314.00 672 328 C 681.33 342.00 693.33 362.00 700 378 C 706.67 394.00 713.33 411.00 712 424 C 710.67 437.00 691.67 448.33 692 456 C 692.33 463.67 703.67 460.00 714 470 C 724.33 480.00 739.33 478.33 754 516 C 768.67 553.67 794.67 665.00 802 696 C 809.33 727.00 807.33 708.67 798 702 C 788.67 695.33 767.00 676.67 746 656 C 725.00 635.33 683.00 595.00 672 578 C 661.00 561.00 679.00 560.67 680 554 C 681.00 547.33 680.00 544.00 678 538 C 676.00 532.00 672.33 524.00 668 518 C 663.67 512.00 651.33 513.00 652 502 C 652.67 491.00 665.00 465.00 672 452 C 679.00 439.00 690.33 430.33 694 424 C 697.67 417.67 697.33 422.67 694 414 C 690.67 405.33 685.00 385.33 674 372 C 663.00 358.67 639.33 338.33 628 334 C 616.67 329.67 614.00 339.67 606 346 C 598.00 352.33 587.67 361.00 580 372 C 572.33 383.00 563.33 403.33 560 412 C 556.67 420.67 556.67 418.00 560 424 C 563.33 430.00 573.00 434.67 580 448 C 587.00 461.33 601.33 492.00 602 504 C 602.67 516.00 588.33 514.67 584 520 C 579.67 525.33 577.67 530.00 576 536 C 574.33 542.00 573.00 549.00 574 556 C 575.00 563.00 601.00 553.67 582 578 C 563.00 602.33 481.67 682.00 460 702 C 438.33 722.00 445.67 728.00 452 698 C 458.33 668.00 488.67 554.67 498 522 C 507.33 489.33 501.00 510.67 508 502 C 515.00 493.33 531.00 477.67 540 470 C 549.00 462.33 561.67 463.67 562 456 C 562.33 448.33 542.67 438.67 542 424 C 541.33 409.33 551.00 384.67 558 368 C 565.00 351.33 573.33 337.67 584 324 C 594.67 310.33 612.00 291.00 622 286 Z
    M 624 354 C 631.00 349.67 628.00 351.67 634 356 C 640.00 360.33 652.33 370.00 660 380 C 667.67 390.00 682.00 401.33 680 416 C 678.00 430.67 654.67 454.00 648 468 C 641.33 482.00 645.67 494.67 640 500 C 634.33 505.33 619.67 505.33 614 500 C 608.33 494.67 612.67 481.67 606 468 C 599.33 454.33 576.33 432.33 574 418 C 571.67 403.67 583.67 392.67 592 382 C 600.33 371.33 617.00 358.33 624 354 Z
    M 402 538 C 406.67 531.00 416.67 537.33 418 544 C 419.33 550.67 410.67 561.00 410 578 C 409.33 595.00 411.33 628.67 414 646 C 416.67 663.33 420.00 669.00 426 682 C 432.00 695.00 437.67 708.67 450 724 C 462.33 739.33 483.00 761.00 500 774 C 517.00 787.00 535.67 795.67 552 802 C 568.33 808.33 589.00 807.00 598 812 C 607.00 817.00 612.67 830.00 606 832 C 599.33 834.00 575.33 829.00 558 824 C 540.67 819.00 512.00 808.67 502 802 C 492.00 795.33 501.33 789.00 498 784 C 494.67 779.00 487.33 774.33 482 772 C 476.67 769.67 476.00 779.33 466 770 C 456.00 760.67 433.33 734.33 422 716 C 410.67 697.67 403.00 674.33 398 660 C 393.00 645.67 393.33 642.33 392 630 C 390.67 617.67 388.33 601.33 390 586 C 391.67 570.67 397.33 545.00 402 538 Z
    M 850 538 C 854.33 542.33 860.33 553.00 862 570 C 863.67 587.00 862.67 620.67 860 640 C 857.33 659.33 852.67 670.33 846 686 C 839.33 701.67 830.00 720.00 820 734 C 810.00 748.00 795.33 763.00 786 770 C 776.67 777.00 770.67 770.33 764 776 C 757.33 781.67 757.33 796.00 746 804 C 734.67 812.00 712.33 819.33 696 824 C 679.67 828.67 654.33 834.00 648 832 C 641.67 830.00 650.00 816.67 658 812 C 666.00 807.33 680.00 810.33 696 804 C 712.00 797.67 736.00 787.33 754 774 C 772.00 760.67 792.00 738.67 804 724 C 816.00 709.33 820.00 699.33 826 686 C 832.00 672.67 837.00 662.00 840 644 C 843.00 626.00 844.67 594.67 844 578 C 843.33 561.33 835.00 550.67 836 544 C 837.00 537.33 845.67 533.67 850 538 Z
    M 592 594 C 617.00 574.33 613.67 590.33 618 604 C 622.33 617.67 619.67 663.33 618 676 C 616.33 688.67 611.33 676.67 608 680 C 604.67 683.33 599.00 688.67 598 696 C 597.00 703.33 598.67 717.67 602 724 C 605.33 730.33 615.33 724.67 618 734 C 620.67 743.33 619.67 772.00 618 780 C 616.33 788.00 611.00 779.33 608 782 C 605.00 784.67 607.33 794.67 600 796 C 592.67 797.33 576.00 793.67 564 790 C 552.00 786.33 540.33 781.33 528 774 C 515.67 766.67 500.00 754.67 490 746 C 480.00 737.33 451.00 747.33 468 722 C 485.00 696.67 567.00 613.67 592 594 Z
    M 658 594 C 683.00 613.33 772.00 691.67 786 720 C 800.00 748.33 754.67 753.67 742 764 C 729.33 774.33 722.33 776.67 710 782 C 697.67 787.33 677.33 793.67 668 796 C 658.67 798.33 657.67 798.33 654 796 C 650.33 793.67 649.00 784.67 646 782 C 643.00 779.33 637.67 788.00 636 780 C 634.33 772.00 634.33 742.33 636 734 C 637.67 725.67 642.67 733.33 646 730 C 649.33 726.67 655.00 721.33 656 714 C 657.00 706.67 655.33 692.33 652 686 C 648.67 679.67 638.67 689.67 636 676 C 633.33 662.33 632.33 617.67 636 604 C 639.67 590.33 633.00 574.67 658 594 Z"/>
  <path fill="currentColor" d="M 626 135 C 636 178 656 197 691 209 C 656 221 636 240 626 274 C 616 240 597 221 560 209 C 597 197 616 178 626 135 Z"/>
  <circle fill="currentColor" cx="626" cy="111" r="11"/>
  <circle fill="currentColor" cx="421" cy="508" r="17"/>
  <circle fill="currentColor" cx="831" cy="507" r="17"/>
  <circle fill="currentColor" cx="627" cy="552" r="38"/>
  <circle fill="currentColor" cx="627" cy="705" r="16"/>
  <circle fill="currentColor" cx="627" cy="807" r="16"/>
</svg>
