<svg xmlns="http://www.w3.org/2000/svg" viewBox="0 0 960 320" role="img" aria-labelledby="title desc">
  <title id="title">dmjedi logo</title>
  <desc id="desc">Original transparent logo with an abstract guardian emblem and data lineage nodes.</desc>
  <defs>
    <linearGradient id="cloakGlow" x1="160" y1="40" x2="320" y2="250" gradientUnits="userSpaceOnUse">
      <stop offset="0" stop-color="#0B1F3A"/>
      <stop offset="1" stop-color="#123B63"/>
    </linearGradient>
    <linearGradient id="traceGlow" x1="112" y1="92" x2="340" y2="210" gradientUnits="userSpaceOnUse">
      <stop offset="0" stop-color="#6EE7F9"/>
      <stop offset="1" stop-color="#C8F8FF"/>
    </linearGradient>
    <filter id="softGlow" x="-20%" y="-20%" width="140%" height="140%">
      <feGaussianBlur stdDeviation="3" result="blur"/>
      <feMerge>
        <feMergeNode in="blur"/>
        <feMergeNode in="SourceGraphic"/>
      </feMerge>
    </filter>
  </defs>

  <g transform="translate(54 34)">
    <path
      d="M137 18c-25 0-48 14-63 38l-28 45c-16 26-16 58 0 84l37 60c16 26 44 41 74 41s58-15 74-41l37-60c16-26 16-58 0-84l-28-45c-15-24-38-38-63-38z"
      fill="url(#cloakGlow)"
    />
    <path
      d="M136 44c-18 0-34 10-45 27l-24 38c-11 18-11 39 0 57l25 40c11 17 27 26 44 26s33-9 44-26l25-40c11-18 11-39 0-57l-24-38c-11-17-27-27-45-27z"
      fill="#081425"
    />
    <path
      d="M138 72c-26 0-48 18-54 43 11-6 23-10 37-10 15 0 28 4 41 12 14 8 28 12 44 12 10 0 20-2 29-5-7-30-33-52-63-52z"
      fill="#E7F9FF"
      opacity="0.92"
    />
    <path
      d="M95 185c18-10 35-14 53-14 18 0 35 4 53 14-12 23-31 36-53 36-22 0-41-13-53-36z"
      fill="#6EE7F9"
      opacity="0.95"
    />

    <path
      d="M48 142c30-22 63-35 94-35 24 0 44 7 63 17"
      fill="none"
      stroke="url(#traceGlow)"
      stroke-linecap="round"
      stroke-width="8"
      filter="url(#softGlow)"
    />
    <path
      d="M68 198c28-18 54-28 79-28 30 0 58 11 95 36"
      fill="none"
      stroke="url(#traceGlow)"
      stroke-linecap="round"
      stroke-width="8"
      opacity="0.9"
      filter="url(#softGlow)"
    />
    <circle cx="46" cy="144" r="10" fill="#6EE7F9"/>
    <circle cx="111" cy="107" r="8" fill="#C8F8FF"/>
    <circle cx="209" cy="126" r="8" fill="#6EE7F9"/>
    <circle cx="68" cy="198" r="8" fill="#C8F8FF"/>
    <circle cx="145" cy="171" r="10" fill="#F7FBFF"/>
    <circle cx="243" cy="206" r="9" fill="#6EE7F9"/>
    <circle cx="252" cy="82" r="6" fill="#F0C36B"/>
  </g>

  <g fill="none" transform="translate(370 92)">
    <path d="M0 112V0h34c21 0 38 6 50 17 15 13 22 31 22 56s-7 43-22 56c-13 12-30 18-50 18H0z" fill="#0B1F3A"/>
    <path d="M35 26H28v60h7c27 0 42-11 42-30 0-20-15-30-42-30z" fill="#6EE7F9"/>
    <path d="M136 0h29v112h-29z" fill="#0B1F3A"/>
    <path d="M196 112V0h30v86h53v26z" fill="#0B1F3A"/>
    <path d="M374 28c-11-5-22-7-32-7-13 0-19 4-19 12 0 6 5 10 17 13l15 4c27 7 40 22 40 45 0 14-5 25-16 34-11 8-26 12-46 12-17 0-33-4-50-12l10-24c15 7 28 10 39 10 16 0 24-5 24-15 0-7-5-12-16-15l-16-4c-14-3-24-9-31-17-7-7-10-16-10-27 0-13 5-24 15-31 10-8 24-12 42-12 15 0 30 3 45 10z" fill="#0B1F3A"/>
    <path d="M445 112h-29V0h29v65l46-65h35l-43 57 48 55h-37l-49-58z" fill="#0B1F3A"/>
    <path d="M570 112c-18 0-33-5-45-16-12-11-18-25-18-43V0h29v53c0 11 3 19 9 25 6 6 15 9 25 9 11 0 19-3 25-9 6-6 9-14 9-25V0h29v53c0 18-6 32-18 43-12 11-27 16-45 16z" fill="#0B1F3A"/>
    <path d="M675 112V0h29v112z" fill="#0B1F3A"/>
  </g>
</svg>
